<?xml version="1.0" encoding="iso-8859-1"?>
<!-- Generator: Adobe Illustrator 18.0.0, SVG Export Plug-In . SVG Version: 6.00 Build 0)  -->
<!DOCTYPE svg PUBLIC "-//W3C//DTD SVG 1.1//EN" "http://www.w3.org/Graphics/SVG/1.1/DTD/svg11.dtd">
<svg version="1.1" id="Capa_1" xmlns="http://www.w3.org/2000/svg" xmlns:xlink="http://www.w3.org/1999/xlink" x="0px" y="0px"
	 viewBox="0 0 325.592 325.592" style="enable-background:new 0 0 325.592 325.592;" xml:space="preserve">
<g>
	<path style="fill:#ffffff" d="M100.682,193.313c6.722,5.386,12.829,8.117,18.15,8.117c2.282,0,4.448-0.503,6.438-1.496
		c6.72-3.355,9.35-11.324,10.341-18.012c3.306,2.439,6.382,5.037,9.162,7.738c0.396,0.386,1.028,0.375,1.414-0.02l6.969-7.17
		c0.385-0.396,0.376-1.029-0.02-1.414c-5.021-4.882-10.777-9.387-17.114-13.396c-0.202-9.115-0.494-18.734-0.64-23.364h14.384
		c0.552,0,1-0.447,1-1v-10c0-0.553-0.448-1-1-1H92.934c-0.552,0-1,0.447-1,1v10c0,0.553,0.448,1,1,1h30.442
		c0.117,3.683,0.306,9.887,0.48,16.627c-7.462-3.585-12.787-5.188-13.028-5.26c-3.094-0.906-5.957-1.366-8.511-1.366
		c-7.874,0-11.314,4.35-12.664,6.942C84.844,170.471,91.633,186.061,100.682,193.313z M100.296,166.783
		c0.089-0.172,0.627-0.496,2.026-0.496c1.368,0,3.131,0.305,5.095,0.881c0.073,0.022,7.429,2.3,16.74,7.438
		c0.031,6.003-1.651,13.3-4.251,14.592c-0.298,0.148-0.678,0.224-1.129,0.224c-2.387,0-6.248-1.995-10.59-5.475
		C102.179,179.135,98.832,169.593,100.296,166.783z"/>
	<path style="fill:#ffffff" d="M173.951,201.053c-0.161-0.358-0.519-0.59-0.912-0.59h-6.9c-0.394,0-0.751,0.231-0.912,0.59l-22.76,50.667
		c-0.139,0.31-0.112,0.669,0.073,0.953c0.184,0.285,0.5,0.457,0.839,0.457h11.125c0.382,0,0.731-0.218,0.899-0.562l4.425-9.073
		h19.521l4.425,9.073c0.168,0.344,0.517,0.562,0.899,0.562h11.126c0.339,0,0.655-0.172,0.839-0.457
		c0.185-0.284,0.212-0.644,0.073-0.953L173.951,201.053z M173.497,231.495h-7.816l3.908-8.013L173.497,231.495z"/>
	<path style="fill:#ffffff" d="M165.543,153.315h14.336c11.068,0,20.072,9.004,20.072,20.072v21.035l-16.462-16.463c-0.391-0.391-1.023-0.391-1.414,0
		l-7.071,7.07c-0.188,0.188-0.293,0.441-0.293,0.707c0,0.266,0.105,0.52,0.293,0.707l30.241,30.242
		c0.188,0.188,0.442,0.293,0.707,0.293c0.265,0,0.52-0.105,0.707-0.293l30.243-30.242c0.188-0.188,0.293-0.441,0.293-0.707
		c0-0.266-0.105-0.52-0.293-0.707l-7.071-7.07c-0.391-0.391-1.023-0.391-1.414,0l-16.464,16.463v-21.035
		c0-17.685-14.388-32.072-32.072-32.072h-14.336c-0.552,0-1,0.447-1,1v10C164.543,152.868,164.991,153.315,165.543,153.315z"/>
	<path style="fill:#ffffff" d="M308.092,8.463H17.5c-9.649,0-17.5,7.851-17.5,17.5v273.666c0,9.649,7.851,17.5,17.5,17.5h290.592
		c9.649,0,17.5-7.851,17.5-17.5V25.963C325.592,16.313,317.741,8.463,308.092,8.463z M273.465,35.296c7.995,0,14.5,6.505,14.5,14.5
		s-6.505,14.5-14.5,14.5c-7.995,0-14.5-6.505-14.5-14.5S265.47,35.296,273.465,35.296z M224.294,35.296
		c7.995,0,14.5,6.505,14.5,14.5s-6.505,14.5-14.5,14.5c-7.995,0-14.5-6.505-14.5-14.5S216.299,35.296,224.294,35.296z
		 M44.399,42.296h58.5c4.142,0,7.5,3.357,7.5,7.5s-3.358,7.5-7.5,7.5h-58.5c-4.142,0-7.5-3.357-7.5-7.5S40.257,42.296,44.399,42.296
		z M297.796,286.806c0,1.258-1.024,2.283-2.284,2.283H30.08c-1.259,0-2.284-1.025-2.284-2.283V98.336h270V286.806z"/>
</g>
<g>
</g>
<g>
</g>
<g>
</g>
<g>
</g>
<g>
</g>
<g>
</g>
<g>
</g>
<g>
</g>
<g>
</g>
<g>
</g>
<g>
</g>
<g>
</g>
<g>
</g>
<g>
</g>
<g>
</g>
</svg>
